<svg width="598" height="598" viewBox="0 0 598 598" fill="none" xmlns="http://www.w3.org/2000/svg">
<path d="M298.667 0.666626C133.973 0.666626 0 134.64 0 299.333C0 464.027 133.973 598 298.667 598C463.36 598 597.333 464.027 597.333 299.333C597.333 134.64 463.36 0.666626 298.667 0.666626ZM298.667 583.067C142.213 583.067 14.9333 455.785 14.9333 299.333C14.9333 142.88 142.215 15.6 298.667 15.6C455.12 15.6 582.4 142.881 582.4 299.333C582.4 455.787 455.113 583.067 298.667 583.067Z" fill="white"/>
<path d="M298.667 30.5306C150.453 30.5306 29.8667 151.115 29.8667 299.331C29.8667 447.547 150.451 568.131 298.667 568.131C446.883 568.131 567.467 447.547 567.467 299.331C567.467 151.115 446.883 30.5306 298.667 30.5306ZM298.667 553.197C158.68 553.197 44.8 439.312 44.8 299.331C44.8 159.344 158.685 45.464 298.667 45.464C438.653 45.464 552.533 159.349 552.533 299.331C552.533 439.317 438.653 553.197 298.667 553.197Z" fill="white"/>
<path d="M340.093 102.427L335.734 61.9892C335.448 59.3538 333.786 57.0674 331.369 55.9789C328.963 54.8903 326.14 55.1768 323.974 56.708L298.422 74.9214L270.182 57.0094C267.984 55.6083 265.208 55.4624 262.879 56.6187C260.541 57.7698 258.973 60.0562 258.744 62.6551L255.176 102.811C167.588 122.852 104.536 201.368 104.536 291.864C104.536 398.911 191.624 485.998 298.67 485.998C405.715 485.998 492.803 398.91 492.803 291.864C492.803 200.323 428.876 121.638 340.096 102.424L340.093 102.427ZM472.38 247.947C471.745 246.796 470.823 245.811 469.656 245.118L441.432 228.4L447.859 196.26C448.161 194.749 447.937 193.234 447.349 191.864C458.734 208.807 467.276 227.733 472.38 247.947ZM432.577 240.52L450.952 251.4L404.384 277.78L381.624 263.233L432.577 240.52ZM375.509 249.556L379.957 222.863L430.692 205.951L426.504 226.883L375.509 249.556ZM306.135 87.7693L322.255 76.2745L327.947 129.446L306.135 143.681L306.135 87.7693ZM306.135 161.515L339.932 139.457C342.281 137.926 343.573 135.207 343.281 132.421L341.75 117.957C384.818 128.514 421.088 154.457 445.37 189.134C443.391 187.436 440.661 186.9 438.177 187.718L373.917 209.134C355.152 191.967 331.532 181.894 306.136 180.238L306.135 161.515ZM306.135 195.155C328.301 196.826 348.916 205.842 365.104 221.155L359.161 256.816L306.135 280.384V195.155ZM294.598 298.128C295.827 298.93 297.244 299.336 298.666 299.336C299.692 299.336 300.729 299.123 301.697 298.69L365.197 270.466L395.708 289.966C395.723 290.597 395.734 291.227 395.734 291.867C395.734 345.394 352.193 388.935 298.666 388.935C245.139 388.935 201.598 345.394 201.598 291.867C201.598 240.862 241.161 199.013 291.197 195.179V291.867C291.197 294.393 292.478 296.753 294.598 298.128ZM269.588 109.421L272.541 76.1919L291.197 88.0305V144.181L267.759 129.91L269.587 109.452C269.593 109.441 269.582 109.432 269.588 109.421ZM298.666 471.075C199.86 471.075 119.466 390.689 119.466 291.875C119.466 209.943 175.384 138.515 253.8 118.341L252.477 133.211C252.227 136.044 253.602 138.773 256.029 140.252L291.195 161.664V180.248C232.925 184.118 186.665 232.634 186.665 291.868C186.665 353.623 236.91 403.868 298.665 403.868C360.419 403.868 410.665 353.623 410.665 291.868C410.665 291.707 410.649 291.561 410.649 291.405L438.691 275.519L469.529 258.05C471.264 257.066 472.514 255.441 473.034 253.566C473.175 253.071 473.222 252.55 473.253 252.024C476.185 264.894 477.862 278.207 477.862 291.868C477.862 390.68 397.472 471.068 298.662 471.068L298.666 471.075Z" fill="white"/>
</svg>
