<svg width="934" height="759" viewBox="0 0 934 759" fill="none" xmlns="http://www.w3.org/2000/svg">
<path d="M541.027 448.347C635.917 459.675 720.893 489.42 787.453 533.325C859.683 580.065 910.672 642.377 933.333 713.192C934.75 720.275 931.917 727.353 924.833 728.771H922V730.187H12.7466C5.6633 730.187 0.00183105 724.521 0.00183105 717.443C0.00183105 716.026 0.00183105 713.193 1.4185 711.776C22.6638 642.38 75.0638 580.063 145.885 533.323C213.869 489.416 298.845 459.677 392.312 448.344V434.183V428.516C386.645 424.266 380.984 418.604 375.317 412.937C354.072 393.109 338.494 364.781 329.994 333.625H290.344L287.511 323.714L286.094 315.214V312.38C271.933 305.297 260.599 296.802 253.52 288.302C243.609 276.974 237.942 264.223 237.942 251.479C237.942 238.735 243.608 225.984 252.103 214.656C260.603 206.156 271.931 197.662 286.092 189.162C286.092 184.912 287.509 182.078 288.926 177.834C288.926 172.167 291.759 166.505 293.176 159.422C305.921 112.682 329.999 73.0256 361.16 44.7029C390.9 17.7909 427.728 0.796265 467.384 0.796265C511.291 0.796265 552.363 22.0416 584.936 56.0309C616.092 90.0203 638.753 136.76 648.671 189.162C661.415 197.662 672.749 206.156 681.244 214.656C691.155 225.984 696.822 238.735 696.822 251.479C696.822 264.223 691.156 276.974 681.244 288.302C672.744 296.802 661.416 305.296 648.671 312.38L647.254 315.214C647.254 318.047 645.837 320.88 645.837 323.714L643.004 333.625H604.764C594.852 364.781 579.269 393.109 559.441 412.937C553.775 418.604 548.113 424.265 541.029 428.516V434.182V448.344L541.027 448.347ZM454.631 360.54C451.797 350.629 453.214 340.712 457.464 333.628C461.714 325.128 470.209 319.467 478.709 316.633C488.621 313.8 498.537 315.217 505.621 320.883C509.871 322.3 514.121 326.55 516.949 330.795L584.933 312.383V306.716L586.35 305.299V301.049L592.017 298.216C601.928 293.966 610.429 288.305 614.678 282.637C618.928 278.387 620.345 274.137 620.345 271.309C620.345 267.059 618.928 262.809 614.678 258.565C610.428 254.315 601.933 248.653 592.017 244.403L586.35 241.57L584.933 234.487V228.82H583.517V223.153H582.1V221.737C515.532 217.487 467.381 201.909 451.803 196.242C403.647 211.821 383.819 217.487 351.245 220.321V223.154C349.829 227.404 349.829 231.654 348.412 234.482L346.995 241.565L341.329 244.399C331.417 248.649 324.334 254.31 318.667 258.56C314.417 262.81 313.001 267.06 313.001 271.305C313.001 274.138 314.417 278.388 318.667 282.633C324.334 288.3 331.412 293.961 341.329 298.212L346.995 301.045L348.412 305.295V306.712L351.245 318.045V319.462C358.329 350.618 373.907 376.112 392.319 395.94C397.985 401.607 403.647 407.268 410.731 411.519L412.147 412.936C414.981 412.936 416.397 414.352 417.814 415.769H419.231V417.186H422.064V418.602H423.481C433.392 422.852 441.893 427.102 453.221 428.514H457.471H475.887H481.553C490.053 427.097 498.548 424.264 507.048 420.014H508.465L509.881 418.597H511.298L512.715 417.18H514.131L515.548 415.764L519.798 412.93H521.215L522.631 411.514C529.715 407.264 535.376 401.602 541.043 395.935C556.622 381.774 567.955 361.946 576.45 340.7L522.633 354.862C522.633 359.112 521.216 364.773 518.383 369.023C514.133 376.106 507.055 381.768 497.137 384.602L495.721 386.018C487.221 387.435 477.309 386.018 470.226 381.768C463.143 377.518 456.065 369.024 454.647 360.523L454.631 360.54ZM478.709 346.379C477.293 347.795 477.293 350.629 478.709 353.462C478.709 356.295 480.126 359.129 482.959 359.129C485.793 360.545 488.626 361.962 491.459 360.545C494.293 359.129 495.709 357.712 497.126 356.295C498.543 353.462 498.543 350.629 498.543 347.795C497.126 344.962 495.709 343.545 492.876 342.129C491.459 340.712 488.626 340.712 485.793 340.712C482.959 342.129 480.126 343.545 478.709 346.379ZM291.764 288.311V285.477H290.347V282.644H288.931V276.977L287.514 275.561V271.311C287.514 259.983 291.764 251.483 300.259 241.571C305.925 235.904 314.42 230.243 325.753 224.576C325.753 221.743 325.753 218.909 327.17 217.493C328.587 211.826 328.587 207.581 330.003 203.331C341.332 169.342 359.743 141.014 383.821 119.769C407.899 99.9407 436.222 87.1953 467.383 87.1953C501.373 87.1953 533.951 102.774 559.441 128.269C583.519 152.347 600.514 186.337 609.009 224.575C618.92 230.242 627.421 235.903 633.087 241.57C641.587 251.481 645.832 259.982 645.832 271.31V278.393L644.416 279.81V284.06H642.999V286.893H641.582V288.31C650.082 282.643 657.161 276.982 662.828 271.315C668.494 264.232 671.328 258.571 671.328 251.487C671.328 244.404 668.494 237.326 662.828 231.659C655.744 223.159 644.416 216.081 631.672 208.998L626.005 206.165L624.588 200.498C616.088 149.514 594.848 104.191 566.52 73.034C538.192 43.294 504.203 26.294 467.38 26.294C433.391 26.294 403.646 39.0388 378.156 63.1167C351.244 88.6113 328.588 124.018 317.255 166.507C315.838 172.174 314.422 177.835 313.005 183.502C311.588 189.169 310.172 194.83 308.755 200.497V206.163L303.088 208.997C288.927 216.08 279.01 223.158 271.932 231.658C266.266 237.325 263.432 244.403 263.432 251.486C263.432 258.569 266.266 264.231 271.932 271.314C276.182 276.981 283.26 282.642 291.76 288.309L291.764 288.311ZM361.16 193.42C385.239 190.587 406.483 184.92 447.556 170.759H448.973L453.223 169.342L457.473 170.759C457.473 170.759 504.213 190.587 573.609 196.253V193.42H572.192V190.587L570.775 189.17V187.753L569.359 186.337V184.92L567.942 183.503V182.087L566.525 180.67V179.253L565.109 177.837V176.42H563.692V173.587H562.275V172.17L559.442 169.337V167.92L558.025 166.503V165.087H556.609V163.67L553.775 160.837V159.42H552.359V158.003H550.942V156.587L548.109 153.753V152.337H546.692V150.92H545.275V149.503H543.859V148.087L541.025 145.253C521.197 125.425 494.285 112.68 467.38 112.68C441.885 112.68 419.224 122.591 399.396 138.175V139.591H397.979V141.008H396.563V142.425H395.146V143.841H393.729V145.258H392.313V146.675H390.896V148.091H389.479V149.508H388.063V150.925H386.646V152.341L382.396 156.591V158.008H380.979V159.425L379.563 160.841V162.258H378.146V163.675H376.729V165.091L375.313 166.508V167.925H373.896V169.341L372.479 170.758V172.175H371.063V173.591L369.646 175.008V176.425L368.229 177.841V179.258L366.813 180.675V182.091H365.396V184.925L363.979 186.341V187.758L362.563 189.175V190.591L361.146 192.008V193.425L361.16 193.42ZM516.947 444.1H515.53C505.618 448.35 494.285 451.183 482.957 452.6C481.54 454.017 478.707 454.017 477.29 454.017H456.039L451.789 452.6H450.373C441.873 451.183 433.378 449.767 424.878 446.933L423.461 445.517H420.628V444.1H417.795V527.663C417.795 540.407 422.045 553.157 430.539 561.652C439.039 570.152 451.785 574.397 464.529 574.397H468.779C482.94 574.397 494.273 570.147 502.768 561.652V560.235H504.185V558.819H505.601V557.402H507.018V555.985L508.435 554.569V553.152H509.851V551.735L511.268 550.319V548.902L512.685 547.485V544.652H514.101V540.402H515.518V533.319H516.935V444.089L516.947 444.1ZM481.54 598.473V704.697H903.593C880.932 646.629 835.609 594.228 774.713 554.577C710.979 513.504 630.247 483.765 541.02 473.848V541.832H539.603V547.499H538.187V551.749H536.77V555.999H535.353V558.832H533.937V561.665H532.52V564.499H531.103V565.915L529.687 567.332V568.749H528.27V570.165L526.853 571.582H525.437V572.999L524.02 574.415V575.832H522.603V577.249H521.187V578.665H519.77V580.082H518.353V581.499H516.937V582.915H515.52V584.332H514.103L512.687 585.749H511.27V587.165H509.853L508.437 588.582H507.02V589.999H505.603L504.187 591.415H502.77L501.353 592.832H499.937L498.52 594.249H495.687V595.665H491.437V597.082H488.603L487.187 598.499H481.52L481.54 598.473ZM457.461 704.697V599.891H454.628L453.211 598.474H447.545V597.057H443.295L440.461 595.641H439.045L437.628 594.224H434.795V592.807H431.961V591.391H429.128V589.974H427.711L426.295 588.557H424.878V587.141H422.045V585.724H420.628V584.307H419.211V582.891H417.795L416.378 581.474H414.961V580.057H413.545V578.641C400.8 565.896 392.299 547.485 392.299 527.657V473.839C303.075 483.751 223.766 513.495 160.033 554.569C99.1313 594.225 52.3966 646.626 29.7353 704.689H457.455L457.461 704.697Z" fill="white"/>
</svg>
