<svg width="716" height="461" viewBox="0 0 716 461" fill="none" xmlns="http://www.w3.org/2000/svg">
<path fill-rule="evenodd" clip-rule="evenodd" d="M139.947 61.4044C97.0253 61.4044 62.1937 95.788 62.1937 138.153C62.1937 180.517 97.0253 214.901 139.947 214.901C182.864 214.901 217.696 180.517 217.696 138.153C217.696 95.788 182.864 61.4044 139.947 61.4044ZM139.947 92.1027C165.698 92.1027 186.597 112.733 186.597 138.153C186.597 163.572 165.698 184.203 139.947 184.203C114.196 184.203 93.2973 163.572 93.2973 138.153C93.2973 112.733 114.196 92.1027 139.947 92.1027Z" fill="white"/>
<path fill-rule="evenodd" clip-rule="evenodd" d="M575.338 61.4044C532.422 61.4044 497.59 95.788 497.59 138.153C497.59 180.517 532.422 214.901 575.338 214.901C618.26 214.901 653.092 180.517 653.092 138.153C653.092 95.788 618.26 61.4044 575.338 61.4044ZM575.338 92.1027C601.089 92.1027 621.988 112.733 621.988 138.153C621.988 163.572 601.089 184.203 575.338 184.203C549.588 184.203 528.688 163.572 528.688 138.153C528.688 112.733 549.588 92.1027 575.338 92.1027Z" fill="white"/>
<path fill-rule="evenodd" clip-rule="evenodd" d="M357.643 0C297.576 0 248.791 48.1525 248.791 107.452C248.791 166.746 297.576 214.898 357.643 214.898C417.709 214.898 466.495 166.746 466.495 107.452C466.495 48.1525 417.709 0 357.643 0ZM357.643 30.6982C400.56 30.6982 435.391 65.0818 435.391 107.452C435.391 149.816 400.56 184.2 357.643 184.2C314.726 184.2 279.895 149.816 279.895 107.452C279.895 65.0818 314.726 30.6982 357.643 30.6982Z" fill="white"/>
<path fill-rule="evenodd" clip-rule="evenodd" d="M229.049 262.117C212.258 251.647 192.369 245.603 171.048 245.603H108.846C48.7319 245.603 0 293.708 0 353.05V414.451C0 439.887 20.8832 460.501 46.65 460.501H668.641C694.408 460.501 715.291 439.887 715.291 414.451V353.05C715.291 293.708 666.559 245.603 606.445 245.603H544.243C522.923 245.603 503.034 251.647 486.242 262.117C466.495 251.57 443.867 245.603 419.845 245.603H295.441C271.419 245.603 248.791 251.57 229.044 262.117H229.049ZM513.147 429.804H202.138C198.02 429.804 194.053 428.191 191.148 425.307C188.222 422.434 186.592 418.518 186.592 414.453V383.754C186.592 324.409 235.324 276.303 295.438 276.303H419.842C479.956 276.303 528.688 324.408 528.688 383.754V414.453C528.688 418.518 527.059 422.434 524.133 425.307C521.227 428.191 517.26 429.804 513.142 429.804H513.147ZM200.699 282.076C191.551 278.36 181.539 276.304 171.043 276.304H108.841C65.9085 276.304 31.0929 310.672 31.0929 353.053V414.454C31.0929 422.929 38.0592 429.806 46.6447 429.806H158.167C156.413 424.924 155.491 419.733 155.491 414.454V383.756C155.491 343.54 172.906 307.342 200.699 282.076ZM557.118 429.804H668.641C677.227 429.804 684.193 422.928 684.193 414.453V353.051C684.193 310.67 649.377 276.303 606.445 276.303H544.243C533.747 276.303 523.734 278.358 514.587 282.074C542.38 307.34 559.795 343.538 559.795 383.754V414.452C559.795 419.731 558.873 424.922 557.118 429.804Z" fill="white"/>
</svg>
