<svg width="701" height="537" viewBox="0 0 701 537" fill="none" xmlns="http://www.w3.org/2000/svg">
<path d="M688.772 149.098V128.333C688.725 118.5 684.48 109.156 677.105 102.656V81.6663C677.085 74.4527 674.829 67.4209 670.652 61.5409C666.475 55.6555 660.579 51.2128 653.772 48.8169V34.9996C653.991 25.9527 650.611 17.1929 644.376 10.6303C638.147 4.06774 629.57 0.25 620.522 0H80.3617C71.3148 0.25 62.7364 4.06774 56.5071 10.6303C50.2727 17.1928 46.8925 25.9529 47.1112 34.9996V48.8169C40.3039 51.2128 34.4081 55.6555 30.2312 61.5409C26.0541 67.4212 23.7989 74.4524 23.7781 81.6663V102.656C16.4032 109.156 12.1584 118.5 12.1115 128.333V149.098C4.71559 155.682 0.470794 165.098 0.444794 175V501.666C0.45521 510.947 4.14786 519.844 10.7052 526.406C17.2677 532.964 26.1639 536.656 35.4452 536.667H665.445C674.726 536.656 683.623 532.964 690.185 526.406C696.743 519.844 700.435 510.948 700.446 501.666V175C700.42 165.099 696.175 155.682 688.779 149.098H688.772ZM408.772 23.3329H620.519C626.42 23.9267 630.8 29.0777 630.435 34.9996V46.6663H408.769L408.772 23.3329ZM408.772 69.9996H642.105C648.548 70.0048 653.767 75.2236 653.772 81.6663V93.4111C653.496 93.4059 653.236 93.3329 652.954 93.3329H408.768L408.772 69.9996ZM408.772 116.666H652.959C659.625 116.453 665.203 121.671 665.443 128.333V140H408.776L408.772 116.666ZM408.772 281.293C423.725 296.512 432.105 316.996 432.105 338.334C432.105 359.673 423.725 380.157 408.772 395.376V281.293ZM408.772 425.28C437.917 405.946 455.439 373.306 455.439 338.332C455.439 303.357 437.917 270.717 408.772 251.384V209.998H570.332C574.634 247.196 599.217 276.848 630.441 282.858V392.41C599.217 398.415 574.635 428.072 570.332 465.27H408.772V425.28ZM292.105 395.373C277.152 380.154 268.772 359.67 268.772 338.332C268.772 316.993 277.152 296.509 292.105 281.29V395.373ZM292.105 251.386C262.96 270.72 245.439 303.36 245.439 338.334C245.439 373.309 262.96 405.949 292.105 425.282V465.266H130.505C126.568 434.802 106.423 417.974 70.432 415.078V282.86C101.656 276.854 126.239 247.198 130.541 210H292.101L292.105 251.386ZM292.105 186.668H119.559C113.116 186.668 107.892 191.892 107.892 198.334C107.892 232.684 85.856 260.637 58.7773 260.637C52.3347 260.637 47.1107 265.856 47.1107 272.304V426.304C47.1107 429.397 48.3398 432.361 50.5273 434.554C52.7148 436.741 55.6836 437.97 58.7773 437.97C94.1267 437.97 107.892 448.897 107.892 476.94V476.934C107.892 480.028 109.121 482.997 111.309 485.184C113.501 487.372 116.465 488.601 119.559 488.601H292.105V513.336H35.4387C28.996 513.331 23.7772 508.112 23.772 501.669V175.002C23.7772 168.56 28.996 163.341 35.4387 163.336H292.105V186.668ZM292.105 140.001H35.4387V128.334C35.6782 121.673 41.2564 116.454 47.9231 116.668H292.11L292.105 140.001ZM292.105 93.3343H47.9187C47.6374 93.3343 47.3822 93.4072 47.101 93.4124V81.6676C47.1062 75.2249 52.325 70.0061 58.7676 70.0009H292.101L292.105 93.3343ZM292.105 46.6676H70.4387V35.0009C70.0741 29.0791 74.4543 23.928 80.3553 23.3343H292.102L292.105 46.6676ZM385.439 513.334H315.439V23.3343H385.439V513.334ZM677.105 501.668C677.1 508.11 671.881 513.329 665.439 513.334H408.772V488.6H581.319C584.412 488.6 587.376 487.37 589.569 485.183C591.756 482.995 592.985 480.027 592.985 476.933C592.985 442.584 615.021 414.63 642.1 414.63V414.635C645.194 414.635 648.162 413.406 650.35 411.219C652.537 409.026 653.767 406.063 653.767 402.969V272.302C653.767 269.208 652.537 266.24 650.35 264.052C648.162 261.865 645.194 260.635 642.1 260.635C615.017 260.635 592.985 232.687 592.985 198.333C592.985 195.239 591.756 192.27 589.569 190.083C587.376 187.895 584.412 186.666 581.319 186.666H408.772V163.333H665.439C671.881 163.338 677.1 168.557 677.105 174.999V501.668ZM595.439 338.334C595.439 329.053 591.751 320.146 585.189 313.585C578.626 307.024 569.719 303.335 560.439 303.335C551.159 303.335 542.251 307.022 535.69 313.585C529.129 320.147 525.44 329.054 525.44 338.334C525.44 347.614 529.127 356.522 535.69 363.084C542.253 369.645 551.159 373.334 560.439 373.334C569.721 373.323 578.617 369.631 585.179 363.073C591.737 356.511 595.429 347.615 595.44 338.333L595.439 338.334ZM560.439 350.001C555.72 350.001 551.465 347.157 549.663 342.798C547.855 338.439 548.85 333.423 552.189 330.084C555.527 326.746 560.543 325.751 564.902 327.558C569.262 329.36 572.105 333.616 572.105 338.334C572.1 344.777 566.881 349.996 560.439 350.001ZM105.439 338.334C105.439 347.615 109.126 356.522 115.689 363.084C122.251 369.645 131.158 373.334 140.438 373.334C149.718 373.334 158.626 369.646 165.187 363.084C171.749 356.521 175.437 347.614 175.437 338.334C175.437 329.054 171.75 320.146 165.187 313.585C158.625 307.024 149.718 303.335 140.438 303.335C131.157 303.345 122.261 307.038 115.698 313.595C109.141 320.158 105.448 329.054 105.438 338.335L105.439 338.334ZM140.439 326.668C145.157 326.668 149.413 329.511 151.215 333.871C153.022 338.23 152.027 343.246 148.689 346.584C145.35 349.923 140.335 350.918 135.975 349.11C131.616 347.308 128.772 343.053 128.772 338.334C128.777 331.892 133.996 326.673 140.439 326.668Z" fill="white"/>
</svg>
