<?xml version="1.0" encoding="UTF-8"?>
<svg width="700pt" height="700pt" version="1.1" viewBox="0 0 700 700" xmlns="http://www.w3.org/2000/svg" xmlns:xlink="http://www.w3.org/1999/xlink">
 <defs>
  <symbol id="b" overflow="visible">
   <path d="m39.078-2.3281c-2.0117 1.043-4.1094 1.8281-6.2969 2.3594s-4.4648 0.79688-6.8281 0.79688c-7.0859 0-12.699-1.9766-16.844-5.9375-4.1367-3.957-6.2031-9.3281-6.2031-16.109 0-6.7891 2.0664-12.164 6.2031-16.125 4.1445-3.9688 9.7578-5.9531 16.844-5.9531 2.3633 0 4.6406 0.26562 6.8281 0.79688s4.2852 1.3242 6.2969 2.375v8.7969c-2.0312-1.3828-4.0391-2.3984-6.0156-3.0469-1.9688-0.64453-4.0469-0.96875-6.2344-0.96875-3.9062 0-6.9844 1.2578-9.2344 3.7656-2.2422 2.5-3.3594 5.9531-3.3594 10.359 0 4.3867 1.1172 7.8359 3.3594 10.344 2.25 2.5 5.3281 3.75 9.2344 3.75 2.1875 0 4.2656-0.32031 6.2344-0.96875 1.9766-0.64453 3.9844-1.6602 6.0156-3.0469z"/>
  </symbol>
  <symbol id="e" overflow="visible">
   <path d="m16.031-40.953v9.0625h10.516v7.2812h-10.516v13.531c0 1.4805 0.28906 2.4805 0.875 3 0.59375 0.52344 1.7656 0.78125 3.5156 0.78125h5.2344v7.2969h-8.7344c-4.0312 0-6.8867-0.83594-8.5625-2.5156-1.6797-1.6875-2.5156-4.5391-2.5156-8.5625v-13.531h-5.0781v-7.2812h5.0781v-9.0625z"/>
  </symbol>
  <symbol id="a" overflow="visible">
   <path d="m26.594-27.234v-17.078h10.266v44.312h-10.266v-4.6094c-1.3984 1.875-2.9453 3.25-4.6406 4.125-1.6875 0.875-3.6406 1.3125-5.8594 1.3125-3.9297 0-7.1562-1.5625-9.6875-4.6875-2.5234-3.125-3.7812-7.1445-3.7812-12.062 0-4.9141 1.2578-8.9375 3.7812-12.062 2.5312-3.125 5.7578-4.6875 9.6875-4.6875 2.1953 0 4.1445 0.44531 5.8438 1.3281 1.707 0.88672 3.2578 2.2578 4.6562 4.1094zm-6.7188 20.656c2.1875 0 3.8516-0.79688 5-2.3906 1.1445-1.5938 1.7188-3.9102 1.7188-6.9531 0-3.0391-0.57422-5.3594-1.7188-6.9531-1.1484-1.5938-2.8125-2.3906-5-2.3906-2.168 0-3.8242 0.79688-4.9688 2.3906-1.1484 1.5938-1.7188 3.9141-1.7188 6.9531 0 3.043 0.57031 5.3594 1.7188 6.9531 1.1445 1.5938 2.8008 2.3906 4.9688 2.3906z"/>
  </symbol>
  <symbol id="d" overflow="visible">
   <path d="m21.875-6.5781c2.1758 0 3.8359-0.79688 4.9844-2.3906 1.1562-1.5938 1.7344-3.9102 1.7344-6.9531 0-3.0391-0.57812-5.3594-1.7344-6.9531-1.1484-1.5938-2.8086-2.3906-4.9844-2.3906-2.1875 0-3.8672 0.80469-5.0312 2.4062-1.168 1.6055-1.75 3.918-1.75 6.9375 0 3.0234 0.58203 5.3359 1.75 6.9375 1.1641 1.6055 2.8438 2.4062 5.0312 2.4062zm-6.7812-20.656c1.4062-1.8516 2.9609-3.2227 4.6719-4.1094 1.707-0.88281 3.6719-1.3281 5.8906-1.3281 3.9375 0 7.1641 1.5625 9.6875 4.6875 2.5195 3.125 3.7812 7.1484 3.7812 12.062 0 4.918-1.2617 8.9375-3.7812 12.062-2.5234 3.125-5.75 4.6875-9.6875 4.6875-2.2188 0-4.1836-0.44531-5.8906-1.3281-1.7109-0.88281-3.2656-2.2539-4.6719-4.1094v4.6094h-10.188v-44.312h10.188z"/>
  </symbol>
  <symbol id="c" overflow="visible">
   <path d="m5.3594-42.516h13.953l9.6875 22.75 9.7344-22.75h13.922v42.516h-10.359v-31.094l-9.7969 22.922h-6.9531l-9.7969-22.922v31.094h-10.391z"/>
  </symbol>
 </defs>
 <g>
  <path d="m186.67 151.67c-32.203 0-58.336 26.133-58.336 58.332s26.133 58.332 58.336 58.332c32.199 0 58.332-26.133 58.332-58.332s-26.133-58.332-58.332-58.332zm0 23.332c19.32 0 35 15.68 35 35s-15.68 35-35 35c-19.32 0-35-15.68-35-35s15.68-35 35-35z" fill-rule="evenodd"/>
  <path d="m513.33 151.67c-32.199 0-58.332 26.133-58.332 58.332s26.133 58.332 58.332 58.332c32.203 0 58.336-26.133 58.336-58.332s-26.133-58.332-58.336-58.332zm0 23.332c19.32 0 35 15.68 35 35s-15.68 35-35 35c-19.32 0-35-15.68-35-35s15.68-35 35-35z" fill-rule="evenodd"/>
  <path d="m350 105c-45.066 0-81.668 36.598-81.668 81.668 0 45.066 36.602 81.664 81.668 81.664s81.668-36.598 81.668-81.664c0-45.07-36.602-81.668-81.668-81.668zm0 23.332c32.199 0 58.332 26.133 58.332 58.336 0 32.199-26.133 58.332-58.332 58.332s-58.332-26.133-58.332-58.332c0-32.203 26.133-58.336 58.332-58.336z" fill-rule="evenodd"/>
  <path d="m253.52 304.22c-12.598-7.957-27.52-12.551-43.516-12.551h-46.668c-45.102 0-81.664 36.562-81.664 81.664v46.668c0 19.332 15.668 35 35 35h466.66c19.332 0 35-15.668 35-35v-46.668c0-45.102-36.562-81.664-81.664-81.664h-46.668c-15.996 0-30.918 4.5938-43.516 12.551-14.816-8.0156-31.793-12.551-49.816-12.551h-93.336c-18.023 0-35 4.5352-49.816 12.551zm213.15 127.45h-233.34c-3.0898 0-6.0664-1.2266-8.2461-3.418-2.1953-2.1836-3.418-5.1602-3.418-8.25v-23.332c0-45.105 36.562-81.668 81.664-81.668h93.336c45.102 0 81.664 36.562 81.664 81.668v23.332c0 3.0898-1.2227 6.0664-3.418 8.25-2.1797 2.1914-5.1562 3.418-8.2461 3.418zm-234.42-112.28c-6.8633-2.8242-14.375-4.3867-22.25-4.3867h-46.668c-32.211 0-58.332 26.121-58.332 58.332v46.668c0 6.4414 5.2266 11.668 11.668 11.668h83.672c-1.3164-3.7109-2.0078-7.6562-2.0078-11.668v-23.332c0-30.566 13.066-58.078 33.918-77.281zm267.41 112.28h83.672c6.4414 0 11.668-5.2266 11.668-11.668v-46.668c0-32.211-26.121-58.332-58.332-58.332h-46.668c-7.875 0-15.387 1.5625-22.25 4.3867 20.852 19.203 33.918 46.715 33.918 77.281v23.332c0 4.0117-0.69141 7.957-2.0078 11.668z" fill-rule="evenodd"/>
  <use x="70" y="735" xlink:href="#b"/>
  <use x="220.503906" y="735" xlink:href="#e"/>
  <use x="287.953125" y="735" xlink:href="#a"/>
  <use x="350.015625" y="735" xlink:href="#d"/>
  <use x="450.105469" y="735" xlink:href="#c"/>
  <use x="547.519531" y="735" xlink:href="#a"/>
  <use x="648.945312" y="735" xlink:href="#b"/>
 </g>
</svg>
