<svg xmlns="http://www.w3.org/2000/svg" version="1.1" xmlns:xlink="http://www.w3.org/1999/xlink" xmlns:svgjs="http://svgjs.dev/svgjs" viewBox="0 0 800 800" opacity="1"><g stroke-width="8.5" stroke="url(#sssquiggly-grad)" fill="none" stroke-linecap="round" transform="matrix(1,0,0,1,-5,-26.6468505859375)"><path d="M10,10C49.583333333333336,18.75,118.75,55.958333333333336,200,52C281.25,48.041666666666664,316.66666666666663,-2.958333333333334,400,-9C483.33333333333337,-15.041666666666666,516.6666666666666,26.125,600,23C683.3333333333334,19.875,758.3333333333334,-14.208333333333334,800,-24"></path><path d="M10,10C49.583333333333336,18.75,118.75,55.958333333333336,200,52C281.25,48.041666666666664,316.66666666666663,-2.958333333333334,400,-9C483.33333333333337,-15.041666666666666,516.6666666666666,26.125,600,23C683.3333333333334,19.875,758.3333333333334,-14.208333333333334,800,-24" transform="matrix(1,0,0,1,0,825)"></path><path d="M10,10C49.583333333333336,18.75,118.75,55.958333333333336,200,52C281.25,48.041666666666664,316.66666666666663,-2.958333333333334,400,-9C483.33333333333337,-15.041666666666666,516.6666666666666,26.125,600,23C683.3333333333334,19.875,758.3333333333334,-14.208333333333334,800,-24" transform="matrix(1,0,0,1,0,792)"></path><path d="M10,10C49.583333333333336,18.75,118.75,55.958333333333336,200,52C281.25,48.041666666666664,316.66666666666663,-2.958333333333334,400,-9C483.33333333333337,-15.041666666666666,516.6666666666666,26.125,600,23C683.3333333333334,19.875,758.3333333333334,-14.208333333333334,800,-24" transform="matrix(1,0,0,1,0,759)"></path><path d="M10,10C49.583333333333336,18.75,118.75,55.958333333333336,200,52C281.25,48.041666666666664,316.66666666666663,-2.958333333333334,400,-9C483.33333333333337,-15.041666666666666,516.6666666666666,26.125,600,23C683.3333333333334,19.875,758.3333333333334,-14.208333333333334,800,-24" transform="matrix(1,0,0,1,0,726)"></path><path d="M10,10C49.583333333333336,18.75,118.75,55.958333333333336,200,52C281.25,48.041666666666664,316.66666666666663,-2.958333333333334,400,-9C483.33333333333337,-15.041666666666666,516.6666666666666,26.125,600,23C683.3333333333334,19.875,758.3333333333334,-14.208333333333334,800,-24" transform="matrix(1,0,0,1,0,693)"></path><path d="M10,10C49.583333333333336,18.75,118.75,55.958333333333336,200,52C281.25,48.041666666666664,316.66666666666663,-2.958333333333334,400,-9C483.33333333333337,-15.041666666666666,516.6666666666666,26.125,600,23C683.3333333333334,19.875,758.3333333333334,-14.208333333333334,800,-24" transform="matrix(1,0,0,1,0,660)"></path><path d="M10,10C49.583333333333336,18.75,118.75,55.958333333333336,200,52C281.25,48.041666666666664,316.66666666666663,-2.958333333333334,400,-9C483.33333333333337,-15.041666666666666,516.6666666666666,26.125,600,23C683.3333333333334,19.875,758.3333333333334,-14.208333333333334,800,-24" transform="matrix(1,0,0,1,0,627)"></path><path d="M10,10C49.583333333333336,18.75,118.75,55.958333333333336,200,52C281.25,48.041666666666664,316.66666666666663,-2.958333333333334,400,-9C483.33333333333337,-15.041666666666666,516.6666666666666,26.125,600,23C683.3333333333334,19.875,758.3333333333334,-14.208333333333334,800,-24" transform="matrix(1,0,0,1,0,594)"></path><path d="M10,10C49.583333333333336,18.75,118.75,55.958333333333336,200,52C281.25,48.041666666666664,316.66666666666663,-2.958333333333334,400,-9C483.33333333333337,-15.041666666666666,516.6666666666666,26.125,600,23C683.3333333333334,19.875,758.3333333333334,-14.208333333333334,800,-24" transform="matrix(1,0,0,1,0,561)"></path><path d="M10,10C49.583333333333336,18.75,118.75,55.958333333333336,200,52C281.25,48.041666666666664,316.66666666666663,-2.958333333333334,400,-9C483.33333333333337,-15.041666666666666,516.6666666666666,26.125,600,23C683.3333333333334,19.875,758.3333333333334,-14.208333333333334,800,-24" transform="matrix(1,0,0,1,0,528)"></path><path d="M10,10C49.583333333333336,18.75,118.75,55.958333333333336,200,52C281.25,48.041666666666664,316.66666666666663,-2.958333333333334,400,-9C483.33333333333337,-15.041666666666666,516.6666666666666,26.125,600,23C683.3333333333334,19.875,758.3333333333334,-14.208333333333334,800,-24" transform="matrix(1,0,0,1,0,495)"></path><path d="M10,10C49.583333333333336,18.75,118.75,55.958333333333336,200,52C281.25,48.041666666666664,316.66666666666663,-2.958333333333334,400,-9C483.33333333333337,-15.041666666666666,516.6666666666666,26.125,600,23C683.3333333333334,19.875,758.3333333333334,-14.208333333333334,800,-24" transform="matrix(1,0,0,1,0,462)"></path><path d="M10,10C49.583333333333336,18.75,118.75,55.958333333333336,200,52C281.25,48.041666666666664,316.66666666666663,-2.958333333333334,400,-9C483.33333333333337,-15.041666666666666,516.6666666666666,26.125,600,23C683.3333333333334,19.875,758.3333333333334,-14.208333333333334,800,-24" transform="matrix(1,0,0,1,0,429)"></path><path d="M10,10C49.583333333333336,18.75,118.75,55.958333333333336,200,52C281.25,48.041666666666664,316.66666666666663,-2.958333333333334,400,-9C483.33333333333337,-15.041666666666666,516.6666666666666,26.125,600,23C683.3333333333334,19.875,758.3333333333334,-14.208333333333334,800,-24" transform="matrix(1,0,0,1,0,396)"></path><path d="M10,10C49.583333333333336,18.75,118.75,55.958333333333336,200,52C281.25,48.041666666666664,316.66666666666663,-2.958333333333334,400,-9C483.33333333333337,-15.041666666666666,516.6666666666666,26.125,600,23C683.3333333333334,19.875,758.3333333333334,-14.208333333333334,800,-24" transform="matrix(1,0,0,1,0,363)"></path><path d="M10,10C49.583333333333336,18.75,118.75,55.958333333333336,200,52C281.25,48.041666666666664,316.66666666666663,-2.958333333333334,400,-9C483.33333333333337,-15.041666666666666,516.6666666666666,26.125,600,23C683.3333333333334,19.875,758.3333333333334,-14.208333333333334,800,-24" transform="matrix(1,0,0,1,0,330)"></path><path d="M10,10C49.583333333333336,18.75,118.75,55.958333333333336,200,52C281.25,48.041666666666664,316.66666666666663,-2.958333333333334,400,-9C483.33333333333337,-15.041666666666666,516.6666666666666,26.125,600,23C683.3333333333334,19.875,758.3333333333334,-14.208333333333334,800,-24" transform="matrix(1,0,0,1,0,297)"></path><path d="M10,10C49.583333333333336,18.75,118.75,55.958333333333336,200,52C281.25,48.041666666666664,316.66666666666663,-2.958333333333334,400,-9C483.33333333333337,-15.041666666666666,516.6666666666666,26.125,600,23C683.3333333333334,19.875,758.3333333333334,-14.208333333333334,800,-24" transform="matrix(1,0,0,1,0,264)"></path><path d="M10,10C49.583333333333336,18.75,118.75,55.958333333333336,200,52C281.25,48.041666666666664,316.66666666666663,-2.958333333333334,400,-9C483.33333333333337,-15.041666666666666,516.6666666666666,26.125,600,23C683.3333333333334,19.875,758.3333333333334,-14.208333333333334,800,-24" transform="matrix(1,0,0,1,0,231)"></path><path d="M10,10C49.583333333333336,18.75,118.75,55.958333333333336,200,52C281.25,48.041666666666664,316.66666666666663,-2.958333333333334,400,-9C483.33333333333337,-15.041666666666666,516.6666666666666,26.125,600,23C683.3333333333334,19.875,758.3333333333334,-14.208333333333334,800,-24" transform="matrix(1,0,0,1,0,198)"></path><path d="M10,10C49.583333333333336,18.75,118.75,55.958333333333336,200,52C281.25,48.041666666666664,316.66666666666663,-2.958333333333334,400,-9C483.33333333333337,-15.041666666666666,516.6666666666666,26.125,600,23C683.3333333333334,19.875,758.3333333333334,-14.208333333333334,800,-24" transform="matrix(1,0,0,1,0,165)"></path><path d="M10,10C49.583333333333336,18.75,118.75,55.958333333333336,200,52C281.25,48.041666666666664,316.66666666666663,-2.958333333333334,400,-9C483.33333333333337,-15.041666666666666,516.6666666666666,26.125,600,23C683.3333333333334,19.875,758.3333333333334,-14.208333333333334,800,-24" transform="matrix(1,0,0,1,0,132)"></path><path d="M10,10C49.583333333333336,18.75,118.75,55.958333333333336,200,52C281.25,48.041666666666664,316.66666666666663,-2.958333333333334,400,-9C483.33333333333337,-15.041666666666666,516.6666666666666,26.125,600,23C683.3333333333334,19.875,758.3333333333334,-14.208333333333334,800,-24" transform="matrix(1,0,0,1,0,99)"></path><path d="M10,10C49.583333333333336,18.75,118.75,55.958333333333336,200,52C281.25,48.041666666666664,316.66666666666663,-2.958333333333334,400,-9C483.33333333333337,-15.041666666666666,516.6666666666666,26.125,600,23C683.3333333333334,19.875,758.3333333333334,-14.208333333333334,800,-24" transform="matrix(1,0,0,1,0,66)"></path><path d="M10,10C49.583333333333336,18.75,118.75,55.958333333333336,200,52C281.25,48.041666666666664,316.66666666666663,-2.958333333333334,400,-9C483.33333333333337,-15.041666666666666,516.6666666666666,26.125,600,23C683.3333333333334,19.875,758.3333333333334,-14.208333333333334,800,-24" transform="matrix(1,0,0,1,0,33)"></path></g><defs><linearGradient gradientTransform="rotate(270)" x1="50%" y1="0%" x2="50%" y2="100%" id="sssquiggly-grad"><stop stop-color="hsl(105, 69%, 40%)" stop-opacity="1" offset="0%"></stop><stop stop-color="hsl(105, 69%, 60%)" stop-opacity="1" offset="100%"></stop></linearGradient></defs></svg>